#Comment line ignore any data following # character 
#Hierarchical Translation and Rotation (.htr) file 
[Header]	
#Header keywords are followed by a single value 
FileType HTR		#Single word string
DataType HTRS		#Translation followed by rotation and scale data
FileVersion 1		#integer
NumSegments 64		#integer
NumFrames 3		#integer
DataFrameRate 30		#integer, data frame rate in this file
EulerRotationOrder ZYX
CalibrationUnits mm
RotationUnits Degrees
GlobalAxisofGravity Y
BoneLengthAxis Y
ScaleFactor 1.00
[SegmentNames&Hierarchy]
#CHILD	PARENT
Pinger_Root GLOBAL
Pelvis Pinger_Root
L_Hip Pelvis
R_Hip Pelvis
Rear_Leg01 Pelvis
Spine1 Pelvis
L_Leg01 L_Hip
L_Leg02 L_Leg01
L_Leg03 L_Leg02
L_Foot L_Leg03
L_Toe1_01 L_Foot
L_Toe2_01 L_Foot
L_Toe3_01 L_Foot
planeAlignerLeft L_Foot
L_Toe1_02 L_Toe1_01
L_Toe1_03 L_Toe1_02
L_Toe2_02 L_Toe2_01
L_Toe2_03 L_Toe2_02
L_Toe3_02 L_Toe3_01
L_Toe3_03 L_Toe3_02
planeLockWeightLeft planeAlignerLeft
R_Leg01 R_Hip
R_Leg02 R_Leg01
R_Leg03 R_Leg02
R_Foot R_Leg03
planeAlignerRight R_Foot
R_Toe1_01 R_Foot
R_Toe2_01 R_Foot
R_Toe3_01 R_Foot
planeLockWeightRight planeAlignerRight
R_Toe1_02 R_Toe1_01
R_Toe1_03 R_Toe1_02
R_Toe2_02 R_Toe2_01
R_Toe2_03 R_Toe2_02
R_Toe3_02 R_Toe3_01
R_Toe3_03 R_Toe3_02
Rear_Leg02 Rear_Leg01
Rear_Leg03 Rear_Leg02
Rear_Leg04 Rear_Leg03
Rear_Foot Rear_Leg04
planeAlignerCenter Rear_Foot
Rear_Toe1_01 Rear_Foot
Rear_Toe2_01 Rear_Foot
Rear_Toe3_01 Rear_Foot
planeLockWeightCenter planeAlignerCenter
Rear_Toe1_02 Rear_Toe1_01
Rear_Toe1_03 Rear_Toe1_02
Rear_Toe2_02 Rear_Toe2_01
Rear_Toe2_03 Rear_Toe2_02
Rear_Toe3_02 Rear_Toe3_01
Rear_Toe3_03 Rear_Toe3_02
Back_Bone Spine1
Head Spine1
Motor_Bone Back_Bone
Ping_Mechanism Back_Bone
BN_LookIK Head
bottomMouth Head
L_Mouth01 Head
L_mouthFront Head
mouthGun Head
R_Mouth01 Head
R_mouthFront Head
TopMouth Head
weapon_bone Head
[BasePosition]
#SegmentName Tx, Ty, Tz, Rx, Ry, Rz, BoneLength
Pinger_Root 0.000000 0.000000 0.000000 -90.000000 0.000000 0.000000 10.000000 
Pelvis 0.000000 0.000000 0.000000 0.000000 0.000000 0.000000 10.000000 
L_Hip 0.000000 0.000000 0.000000 0.000000 0.000000 0.000000 10.000000 
R_Hip 0.000000 0.000000 0.000000 0.000000 0.000000 0.000000 10.000000 
Rear_Leg01 0.000000 0.000000 0.000000 0.000000 0.000000 0.000000 10.000000 
Spine1 0.000000 0.000000 0.000000 0.000000 0.000000 0.000000 10.000000 
L_Leg01 0.000000 0.000000 0.000000 0.000000 0.000000 0.000000 10.000000 
L_Leg02 0.000000 0.000000 0.000000 0.000000 0.000000 0.000000 10.000000 
L_Leg03 0.000000 0.000000 0.000000 0.000000 0.000000 0.000000 10.000000 
L_Foot 0.000000 0.000000 0.000000 0.000000 0.000000 0.000000 10.000000 
L_Toe1_01 0.000000 0.000000 0.000000 0.000000 0.000000 0.000000 10.000000 
L_Toe2_01 0.000000 0.000000 0.000000 0.000000 0.000000 0.000000 10.000000 
L_Toe3_01 0.000000 0.000000 0.000000 0.000000 0.000000 0.000000 10.000000 
planeAlignerLeft 0.000000 0.000000 0.000000 0.000000 0.000000 0.000000 10.000000 
L_Toe1_02 0.000000 0.000000 0.000000 0.000000 0.000000 0.000000 10.000000 
L_Toe1_03 0.000000 0.000000 0.000000 0.000000 0.000000 0.000000 10.000000 
L_Toe2_02 0.000000 0.000000 0.000000 0.000000 0.000000 0.000000 10.000000 
L_Toe2_03 0.000000 0.000000 0.000000 0.000000 0.000000 0.000000 10.000000 
L_Toe3_02 0.000000 0.000000 0.000000 0.000000 0.000000 0.000000 10.000000 
L_Toe3_03 0.000000 0.000000 0.000000 0.000000 0.000000 0.000000 10.000000 
planeLockWeightLeft 0.000000 0.000000 0.000000 0.000000 0.000000 0.000000 10.000000 
R_Leg01 0.000000 0.000000 0.000000 0.000000 0.000000 0.000000 10.000000 
R_Leg02 0.000000 0.000000 0.000000 0.000000 0.000000 0.000000 10.000000 
R_Leg03 0.000000 0.000000 0.000000 0.000000 0.000000 0.000000 10.000000 
R_Foot 0.000000 0.000000 0.000000 0.000000 0.000000 0.000000 10.000000 
planeAlignerRight 0.000000 0.000000 0.000000 0.000000 0.000000 0.000000 10.000000 
R_Toe1_01 0.000000 0.000000 0.000000 0.000000 0.000000 0.000000 10.000000 
R_Toe2_01 0.000000 0.000000 0.000000 0.000000 0.000000 0.000000 10.000000 
R_Toe3_01 0.000000 0.000000 0.000000 0.000000 0.000000 0.000000 10.000000 
planeLockWeightRight 0.000000 0.000000 0.000000 0.000000 0.000000 0.000000 10.000000 
R_Toe1_02 0.000000 0.000000 0.000000 0.000000 0.000000 0.000000 10.000000 
R_Toe1_03 0.000000 0.000000 0.000000 0.000000 0.000000 0.000000 10.000000 
R_Toe2_02 0.000000 0.000000 0.000000 0.000000 0.000000 0.000000 10.000000 
R_Toe2_03 0.000000 0.000000 0.000000 0.000000 0.000000 0.000000 10.000000 
R_Toe3_02 0.000000 0.000000 0.000000 0.000000 0.000000 0.000000 10.000000 
R_Toe3_03 0.000000 0.000000 0.000000 0.000000 0.000000 0.000000 10.000000 
Rear_Leg02 0.000000 0.000000 0.000000 0.000000 0.000000 0.000000 10.000000 
Rear_Leg03 0.000000 0.000000 0.000000 0.000000 0.000000 0.000000 10.000000 
Rear_Leg04 0.000000 0.000000 0.000000 0.000000 0.000000 0.000000 10.000000 
Rear_Foot 0.000000 0.000000 0.000000 0.000000 0.000000 0.000000 10.000000 
planeAlignerCenter 0.000000 0.000000 0.000000 0.000000 0.000000 0.000000 10.000000 
Rear_Toe1_01 0.000000 0.000000 0.000000 0.000000 0.000000 0.000000 10.000000 
Rear_Toe2_01 0.000000 0.000000 0.000000 0.000000 0.000000 0.000000 10.000000 
Rear_Toe3_01 0.000000 0.000000 0.000000 0.000000 0.000000 0.000000 10.000000 
planeLockWeightCenter 0.000000 0.000000 0.000000 0.000000 0.000000 0.000000 10.000000 
Rear_Toe1_02 0.000000 0.000000 0.000000 0.000000 0.000000 0.000000 10.000000 
Rear_Toe1_03 0.000000 0.000000 0.000000 0.000000 0.000000 0.000000 10.000000 
Rear_Toe2_02 0.000000 0.000000 0.000000 0.000000 0.000000 0.000000 10.000000 
Rear_Toe2_03 0.000000 0.000000 0.000000 0.000000 0.000000 0.000000 10.000000 
Rear_Toe3_02 0.000000 0.000000 0.000000 0.000000 0.000000 0.000000 10.000000 
Rear_Toe3_03 0.000000 0.000000 0.000000 0.000000 0.000000 0.000000 10.000000 
Back_Bone 0.000000 0.000000 0.000000 0.000000 0.000000 0.000000 10.000000 
Head 0.000000 0.000000 0.000000 0.000000 0.000000 0.000000 10.000000 
Motor_Bone 0.000000 0.000000 0.000000 0.000000 0.000000 0.000000 10.000000 
Ping_Mechanism 0.000000 0.000000 0.000000 0.000000 0.000000 0.000000 10.000000 
BN_LookIK 0.000000 0.000000 0.000000 0.000000 0.000000 0.000000 10.000000 
bottomMouth 0.000000 0.000000 0.000000 0.000000 0.000000 0.000000 10.000000 
L_Mouth01 0.000000 0.000000 0.000000 0.000000 0.000000 0.000000 10.000000 
L_mouthFront 0.000000 0.000000 0.000000 0.000000 0.000000 0.000000 10.000000 
mouthGun 0.000000 0.000000 0.000000 0.000000 0.000000 0.000000 10.000000 
R_Mouth01 0.000000 0.000000 0.000000 0.000000 0.000000 0.000000 10.000000 
R_mouthFront 0.000000 0.000000 0.000000 0.000000 0.000000 0.000000 10.000000 
TopMouth 0.000000 0.000000 0.000000 0.000000 0.000000 0.000000 10.000000 
weapon_bone 0.000000 0.000000 0.000000 0.000000 0.000000 0.000000 10.000000 
#Beginning of Data. Separated by tabs
#Fr	Tx	Ty	Tz	Rx	Ry	Rz	SF
[Pinger_Root]
198 0.000000 0.000000 0.000000 -0.000075 -0.000000 -0.000020 0.000000
199 0.000000 0.000000 0.000000 -0.000075 -0.000000 -0.000020 0.000000
200 0.000000 0.000000 0.000000 -0.000075 -0.000000 -0.000020 0.000000
[Pelvis]
198 -1407.539673 15810.991211 -2424.744385 27.916183 -66.932983 -12.815195 16057.645508
199 -1398.050903 15950.070313 -2461.414551 28.726076 -66.171501 -11.947570 16199.316406
200 -1386.554443 16090.076172 -2485.135254 30.400858 -66.012756 -11.938684 16339.797852
[L_Hip]
198 5.766392 125.831482 872.656799 -178.253311 -81.787712 87.381248 881.701050
199 5.766392 125.831482 872.656799 -178.253311 -81.787758 87.381340 881.701050
200 5.766392 125.831482 872.656799 -178.253311 -81.787758 87.381340 881.701050
[R_Hip]
198 5.765438 125.836372 -872.654907 -1.746713 81.787666 87.381149 881.699829
199 5.765438 125.836372 -872.654907 -1.746690 81.787712 87.381248 881.699829
200 5.765438 125.836372 -872.654907 -1.746690 81.787712 87.381248 881.699829
[Rear_Leg01]
198 -192.298416 -925.602966 -0.001907 -165.743073 12.816455 -167.568619 945.367432
199 -192.298416 -925.602966 -0.001907 -163.544617 11.657126 -164.924973 945.367432
200 -192.298416 -925.602966 -0.001907 -161.568253 9.518020 -162.282928 945.367432
[Spine1]
198 290.604584 5.007505 0.000477 -20.713659 -6.422714 37.459702 290.647736
199 290.604584 5.007505 0.000477 -22.462347 -5.109186 37.393406 290.647736
200 290.604584 5.007505 0.000477 -23.877766 -3.261490 37.280510 290.647736
[L_Leg01]
198 761.932007 -0.002384 -0.069261 96.515640 23.361919 -97.803833 761.932068
199 761.932007 -0.002384 -0.069261 98.671852 26.689123 -97.089577 761.932068
200 761.932007 -0.002384 -0.069261 101.074577 30.235628 -95.358452 761.932068
[L_Leg02]
198 1441.140503 -0.000954 -0.000715 -0.985823 1.069227 -62.732864 1441.140503
199 1441.140503 -0.000954 -0.000715 -0.997495 1.065308 -59.309177 1441.140503
200 1441.140503 -0.000954 -0.000715 -1.009379 1.062093 -55.885452 1441.140503
[L_Leg03]
198 1686.963989 -0.000715 -0.000954 0.199926 0.023025 56.845791 1686.963989
199 1686.963989 -0.000715 -0.000954 0.199885 0.023383 56.640736 1686.963989
200 1686.963989 -0.000715 -0.000954 0.199842 0.023741 56.435661 1686.963989
[L_Foot]
198 3041.570068 -30.715107 11.297464 -12.923729 15.161046 78.885292 3041.746094
199 3041.570068 -30.715107 11.297464 -13.251027 15.113413 78.925934 3041.746094
200 3041.570068 -30.715107 11.297464 -13.578285 15.066003 78.966835 3041.746094
[L_Toe1_01]
198 -188.216690 -224.732346 -21.137953 83.676666 -1.794058 -151.434280 293.899567
199 -188.216690 -224.732346 -21.137953 83.590385 -1.713222 -150.314621 293.899567
200 -188.216690 -224.732346 -21.137953 83.503159 -1.629507 -149.139267 293.899567
[L_Toe2_01]
198 200.746536 -219.926590 148.838394 -77.960068 -12.199956 -54.631264 332.896027
199 200.746536 -219.926590 148.838394 -77.793121 -11.977053 -55.634563 332.896027
200 200.746536 -219.926590 148.838394 -77.630310 -11.751313 -56.636436 332.896027
[L_Toe3_01]
198 188.832520 -219.859131 -191.078659 -99.345528 16.735363 -57.106224 347.140900
199 188.832520 -219.859131 -191.078659 -99.498772 16.525852 -58.100719 347.140900
200 188.832520 -219.859131 -191.078659 -99.647705 16.285585 -59.123005 347.140900
[planeAlignerLeft]
198 0.812531 -811.448792 -0.314951 0.000000 -90.000000 -90.001900 811.449280
199 0.812531 -811.448792 -0.314951 0.000000 -90.000000 -90.001900 811.449280
200 0.812531 -811.448792 -0.314951 0.000000 -90.000000 -90.001900 811.449280
[L_Toe1_02]
198 413.761139 0.000477 0.000000 0.001385 -25.870834 0.001385 413.761139
199 413.761139 0.000477 0.000000 0.001385 -25.901279 0.001385 413.761139
200 413.761139 0.000477 0.000000 0.001384 -25.931732 0.001384 413.761139
[L_Toe1_03]
198 464.317322 0.000358 -0.000089 0.004129 56.963505 0.004129 464.317322
199 464.317322 0.000358 -0.000089 0.003902 54.983994 0.003902 464.317322
200 464.317322 0.000358 -0.000089 0.003699 53.005066 0.003699 464.317322
[L_Toe2_02]
198 342.235809 -0.000477 0.000238 0.001182 -76.745827 0.001182 342.235809
199 342.235809 -0.000477 0.000238 0.001182 -76.358879 0.001182 342.235809
200 342.235809 -0.000477 0.000238 0.001182 -75.971924 0.001182 342.235809
[L_Toe2_03]
198 420.210846 -0.000715 0.000000 -179.994431 81.004074 -179.990921 420.210846
199 420.210846 -0.000715 0.000000 -179.993011 82.454414 -179.989517 420.210846
200 420.210846 -0.000715 0.000000 -179.990936 83.905128 -179.987442 420.210846
[L_Toe3_02]
198 329.270111 0.000954 0.000000 0.001178 -80.349075 0.001178 329.270111
199 329.270111 0.000954 0.000000 0.001178 -80.033478 0.001178 329.270111
200 329.270111 0.000954 0.000000 0.001178 -79.717957 0.001178 329.270111
[L_Toe3_03]
198 439.137451 -0.001907 0.000954 -179.995743 79.018555 -179.992233 439.137451
199 439.137451 -0.001907 0.000954 -179.994965 80.291634 -179.991455 439.137451
200 439.137451 -0.001907 0.000954 -179.993942 81.564598 -179.990433 439.137451
[planeLockWeightLeft]
198 -0.000954 0.000238 -0.000305 -0.011826 -0.004376 0.005620 0.001029
199 -0.000954 0.000238 -0.000305 -0.011826 -0.004376 0.005620 0.001029
200 -0.000954 0.000238 -0.000305 -0.011826 -0.004376 0.005620 0.001029
[R_Leg01]
198 761.455627 -0.001907 -0.000358 155.609833 -53.220375 -19.446730 761.455688
199 761.455627 -0.001907 -0.000358 138.970795 -37.941311 1.105384 761.455688
200 761.455627 -0.001907 -0.000358 126.588799 -17.973574 17.040201 761.455688
[R_Leg02]
198 1441.140625 0.000000 -0.000238 1.881450 0.015147 151.293030 1441.140625
199 1441.140625 0.000000 -0.000238 -5.555708 -1.047793 174.487305 1441.140625
200 1441.140625 0.000000 -0.000238 -17.678169 -1.180252 -149.009689 1441.140625
[R_Leg03]
198 1686.963989 0.000954 0.001431 0.080126 -0.041824 131.798248 1686.963989
199 1686.963989 0.000954 0.001431 0.079957 -0.042145 132.258194 1686.963989
200 1686.963989 0.000954 0.001431 0.061728 -0.032124 127.645348 1686.963989
[R_Foot]
198 3041.560059 -30.531288 -11.204481 10.388618 -10.037332 78.951691 3041.734131
199 3041.560059 -30.531288 -11.204481 6.018124 -3.896881 72.734505 3041.734131
200 3041.560059 -30.531288 -11.204481 0.257384 -3.617202 61.265022 3041.734131
[planeAlignerRight]
198 -0.635147 -812.270569 -0.364304 0.000000 -89.960434 -90.005180 812.270874
199 -0.635147 -812.270569 -0.364304 0.000000 -89.960434 -90.005180 812.270874
200 -0.635147 -812.270569 -0.364304 0.000000 -89.960434 -90.005180 812.270874
[R_Toe1_01]
198 -188.383347 -224.864899 21.052242 93.533890 1.622461 -148.526443 294.101532
199 -188.383347 -224.864899 21.052242 93.521446 1.668390 -149.384705 294.101532
200 -188.383347 -224.864899 21.052242 93.508301 1.714119 -150.242874 294.101532
[R_Toe2_01]
198 200.637817 -220.002121 -148.787384 -101.674599 9.201873 -79.480064 332.857574
199 200.637817 -220.002121 -148.787384 -101.474274 9.845375 -78.099228 332.857574
200 200.637817 -220.002121 -148.787384 -101.257820 10.483913 -76.713318 332.857574
[R_Toe3_01]
198 188.606735 -220.092957 191.126343 -70.215370 -11.414211 -80.871971 347.192566
199 188.606735 -220.092957 191.126343 -70.414993 -12.167978 -79.533104 347.192566
200 188.606735 -220.092957 191.126343 -70.633209 -12.916965 -78.187599 347.192566
[planeLockWeightRight]
198 -0.000477 0.000000 0.000000 -0.011823 -0.004379 -0.000027 0.000477
199 -0.000477 0.000000 0.000000 -0.011823 -0.004379 -0.000027 0.000477
200 -0.000477 0.000000 0.000000 -0.011823 -0.004379 -0.000027 0.000477
[R_Toe1_02]
198 413.762085 0.000477 -0.000119 0.001405 -23.238886 0.001405 413.762085
199 413.762085 0.000477 -0.000119 0.001404 -23.390398 0.001404 413.762085
200 413.762085 0.000477 -0.000119 0.001403 -23.541920 0.001403 413.762085
[R_Toe1_03]
198 464.317810 0.000000 0.001088 0.010684 77.386681 0.010684 464.317810
199 464.317810 0.000000 0.001088 0.010085 76.633354 0.010085 464.317810
200 464.317810 0.000000 0.001088 0.009549 75.880066 0.009549 464.317810
[R_Toe2_02]
198 342.234741 -0.000954 0.000238 -0.002331 -80.816093 -0.002331 342.234741
199 342.234741 -0.000954 0.000238 -0.002330 -80.853485 -0.002330 342.234741
200 342.234741 -0.000954 0.000238 -0.002330 -80.890816 -0.002330 342.234741
[R_Toe2_03]
198 420.210846 0.000715 -0.000268 -179.996445 50.695435 179.999863 420.210846
199 420.210846 0.000715 -0.000268 -179.996490 48.868958 179.999771 420.210846
200 420.210846 0.000715 -0.000268 -179.996552 47.287663 179.999710 420.210846
[R_Toe3_02]
198 329.270355 -0.000477 -0.000954 0.001175 -84.488892 0.001175 329.270355
199 329.270355 -0.000477 -0.000954 0.001175 -84.557091 0.001175 329.270355
200 329.270355 -0.000477 -0.000954 0.001175 -84.625206 0.001175 329.270355
[R_Toe3_03]
198 439.137939 0.000238 0.001431 -179.996918 50.034168 -179.989487 439.137939
199 439.137939 0.000238 0.001431 -179.997223 48.277546 -179.989731 439.137939
200 439.137939 0.000238 0.001431 -179.997452 46.780666 -179.989944 439.137939
[Rear_Leg02]
198 1162.777710 -0.029802 0.005960 14.376965 4.846829 168.875015 1162.777710
199 1162.777710 -0.029802 0.005960 14.740180 2.057632 178.962540 1162.777710
200 1162.777710 -0.029802 0.005960 14.350242 2.723806 174.135513 1162.777710
[Rear_Leg03]
198 607.192505 -0.013351 -0.073195 -0.013556 0.000790 34.667568 607.192505
199 607.192505 -0.013351 -0.073195 -0.017760 0.003963 14.675647 607.192505
200 607.192505 -0.013351 -0.073195 -0.021871 0.071275 1.925610 607.192505
[Rear_Leg04]
198 995.874512 -0.020504 -0.011921 -0.032486 -0.005824 165.438904 995.874573
199 995.874512 -0.020504 -0.011921 -0.032823 -0.003449 173.783844 995.874573
200 995.874512 -0.020504 -0.011921 -0.029252 -0.153929 -175.410782 995.874573
[Rear_Foot]
198 3096.176270 -0.067472 -0.041425 -110.470207 73.817802 63.135422 3096.176270
199 3096.176270 -0.067472 -0.041425 -116.268013 73.346298 60.945709 3096.176270
200 3096.176270 -0.067472 -0.041425 -122.625923 72.561455 63.939587 3096.176270
[planeAlignerCenter]
198 0.350077 0.966311 -838.790894 0.000009 0.000003 -179.999985 838.791565
199 0.350077 0.966311 -838.790894 0.000009 0.000003 -179.999985 838.791565
200 0.350077 0.966311 -838.790894 0.000009 0.000003 -179.999985 838.791565
[Rear_Toe1_01]
198 0.653352 83.966492 -371.173737 0.068195 23.408878 90.030220 380.553192
199 0.653352 83.966492 -371.173737 0.070075 24.995838 90.030556 380.553192
200 0.653352 83.966492 -371.173737 0.214803 23.711000 90.364944 380.553192
[Rear_Toe2_01]
198 178.200760 -294.826019 -362.060547 -3.787675 50.227184 -74.062721 499.765686
199 178.200760 -294.826019 -362.060547 -3.738822 51.344990 -73.832260 499.765686
200 178.200760 -294.826019 -362.060547 -3.791521 50.397629 -73.939865 499.765686
[Rear_Toe3_01]
198 -153.359680 -308.780914 -362.060852 -0.033549 50.229115 -109.658211 499.952881
199 -153.359680 -308.780914 -362.060852 -0.203405 51.373669 -110.002319 499.952881
200 -153.359680 -308.780914 -362.060852 -0.618826 50.372688 -110.793884 499.952881
[planeLockWeightCenter]
198 -0.000062 0.000238 0.000000 -0.011814 -0.004373 -0.000015 0.000246
199 -0.000062 0.000238 0.000000 -0.011814 -0.004373 -0.000015 0.000246
200 -0.000062 0.000238 0.000000 -0.011814 -0.004373 -0.000015 0.000246
[Rear_Toe1_02]
198 379.707825 0.194073 0.000477 -0.003438 -33.090302 -0.003438 379.707855
199 379.707825 0.194073 0.000477 -0.002639 -33.361385 -0.002639 379.707855
200 379.707825 0.194073 0.000477 -0.001314 -33.449184 -0.001314 379.707855
[Rear_Toe1_03]
198 500.129700 0.165701 0.000119 0.008971 85.758224 0.007221 500.129761
199 500.129700 0.165701 0.000119 0.017415 82.271858 0.017415 500.129761
200 500.129700 0.165701 0.000119 0.017068 82.114296 0.017068 500.129761
[Rear_Toe2_02]
198 340.494507 0.000238 -0.000954 0.001185 -74.310196 0.001185 340.494507
199 340.494507 0.000238 -0.000954 0.001184 -74.611916 0.001184 340.494507
200 340.494507 0.000238 -0.000954 0.001181 -77.050560 0.001181 340.494507
[Rear_Toe2_03]
198 433.103577 0.000000 0.000238 0.010301 76.915771 0.010301 433.103546
199 433.103577 0.000000 0.000238 0.010828 77.555183 0.010828 433.103546
200 433.103577 0.000000 0.000238 0.016600 81.891525 0.016600 433.103546
[Rear_Toe3_02]
198 340.494141 -0.000358 -0.000477 0.001185 -74.293594 0.001185 340.494171
199 340.494141 -0.000358 -0.000477 0.001184 -74.580833 0.001184 340.494171
200 340.494141 -0.000358 -0.000477 0.001182 -76.665451 0.001182 340.494171
[Rear_Toe3_03]
198 433.103577 0.001431 -0.000238 0.010271 76.877876 0.010271 433.103546
199 433.103577 0.001431 -0.000238 0.010773 77.491745 0.010773 433.103546
200 433.103577 0.001431 -0.000238 0.015240 81.166733 0.015240 433.103546
[Back_Bone]
198 1312.175781 -701.934692 0.000954 0.303717 -0.001264 -95.877487 1488.125488
199 1312.175781 -701.934692 0.000954 0.313224 -0.001139 -95.927856 1488.125488
200 1312.175781 -701.934692 0.000954 0.322730 -0.001005 -95.978226 1488.125488
[Head]
198 1406.159424 809.709290 0.001431 -3.220664 -4.553231 5.023346 1622.625488
199 1406.159424 809.709290 0.001431 -3.106755 -5.397765 4.954095 1622.625488
200 1406.159424 809.709290 0.001431 -2.991645 -6.242150 4.883047 1622.625488
[Motor_Bone]
198 1158.364380 -417.834747 0.000477 2.270579 -1.149517 -107.133400 1231.419434
199 1158.364380 -417.834747 0.000477 2.007257 -1.139695 -107.128128 1231.419434
200 1158.364380 -417.834747 0.000477 1.247693 -1.123289 -107.111252 1231.419434
[Ping_Mechanism]
198 1191.636963 -408.167114 87.251404 0.000103 -0.000053 82.120995 1262.620972
199 1193.195801 -409.064636 86.354164 0.000103 -0.000053 82.120995 1264.320801
200 1193.078613 -410.160339 82.190041 0.000103 -0.000053 82.120995 1264.287720
[BN_LookIK]
198 193.241119 1380.371704 -0.002861 0.000000 89.965736 -31.038179 1393.832153
199 193.241119 1380.371704 -0.002861 0.000000 89.965736 -31.038179 1393.832153
200 193.241119 1380.371704 -0.002861 0.000000 89.965736 -31.038179 1393.832153
[bottomMouth]
198 -435.092926 615.759399 -0.000954 -0.000022 0.000016 73.527184 753.966492
199 -435.092926 615.759399 -0.000954 -0.000022 0.000016 73.527184 753.966492
200 -435.092926 615.759399 -0.000954 -0.000022 0.000016 73.527184 753.966492
[L_Mouth01]
198 554.440979 7.658243 838.222046 150.204178 23.759130 109.605339 1005.027161
199 554.440979 7.658243 838.222046 150.204178 23.759130 109.605339 1005.027161
200 554.440979 7.658243 838.222046 150.204178 23.759130 109.605339 1005.027161
[L_mouthFront]
198 551.629089 934.514771 339.150421 0.000081 2.804060 79.119301 1136.941284
199 551.629089 934.514771 339.150421 0.000081 2.804060 79.119301 1136.941284
200 551.629089 934.514771 339.150421 0.000081 2.804060 79.119301 1136.941284
[mouthGun]
198 55.332661 1627.420898 0.000000 0.000023 0.000009 -11.038128 1628.361328
199 55.332661 1627.420898 0.000000 0.000023 0.000009 -11.038128 1628.361328
200 55.332661 1627.420898 0.000000 0.000023 0.000009 -11.038128 1628.361328
[R_Mouth01]
198 554.442383 7.659197 -838.223938 29.795891 -23.759109 109.605331 1005.029541
199 554.442383 7.659197 -838.223938 29.795891 -23.759109 109.605331 1005.029541
200 554.442383 7.659197 -838.223938 29.795891 -23.759109 109.605331 1005.029541
[R_mouthFront]
198 551.629089 934.514282 -339.151367 0.000029 -2.803930 79.119133 1136.941162
199 551.629089 934.514282 -339.151367 0.000029 -2.803930 79.119133 1136.941162
200 551.629089 934.514282 -339.151367 0.000029 -2.803930 79.119133 1136.941162
[TopMouth]
198 461.269867 -56.106091 -0.008583 -0.000059 -0.000268 92.025169 464.669525
199 461.269867 -56.106091 -0.008583 -0.000059 -0.000268 92.025169 464.669525
200 461.269867 -56.106091 -0.008583 -0.000059 -0.000268 92.025169 464.669525
[weapon_bone]
198 -987.239868 1448.372803 0.001431 0.000000 89.965736 -31.038221 1752.833740
199 -987.239868 1448.372803 0.001431 0.000000 89.965736 -31.038221 1752.833740
200 -987.239868 1448.372803 0.001431 0.000000 89.965736 -31.038221 1752.833740
